<svg width="344" xmlns="http://www.w3.org/2000/svg" height="100" id="screenshot-c17a8d61-28a7-809a-8007-e26e2a88d150" viewBox="0 0 344 100" xmlns:xlink="http://www.w3.org/1999/xlink" fill="none" version="1.1"><g id="shape-c17a8d61-28a7-809a-8007-e26e2a88d150" width="344" height="100" rx="0" ry="0" style="fill: rgb(0, 0, 0);"><defs><linearGradient x1="195.003" y1="30" x2="195.003" y2="87" id="render-1-d" gradientUnits="userSpaceOnUse" class="svg-def" gradientTransform="matrix(1.000000, 0.000000, 0.000000, 1.000000, 0.000000, 0.000000)"><stop stop-color="#fff"/><stop offset="1" stop-color="#999"/></linearGradient><linearGradient x1="197.961" y1="30" x2="197.961" y2="87" id="render-1-f" gradientUnits="userSpaceOnUse" class="svg-def" gradientTransform="matrix(1.000000, 0.000000, 0.000000, 1.000000, 0.000000, 0.000000)"><stop stop-color="#fff"/><stop offset="1" stop-color="#999"/></linearGradient><linearGradient x1="195.935" y1="30" x2="195.935" y2="87" id="render-1-e" gradientUnits="userSpaceOnUse" class="svg-def" gradientTransform="matrix(1.000000, 0.000000, 0.000000, 1.000000, 0.000000, 0.000000)"><stop stop-color="#fff"/><stop offset="1" stop-color="#999"/></linearGradient><linearGradient x1="211.726" y1="30" x2="211.726" y2="87" id="render-1-j" gradientUnits="userSpaceOnUse" class="svg-def" gradientTransform="matrix(1.000000, 0.000000, 0.000000, 1.000000, 0.000000, 0.000000)"><stop stop-color="#fff"/><stop offset="1" stop-color="#999"/></linearGradient><linearGradient x1="188.013" y1="30" x2="188.013" y2="87" id="render-1-a" gradientUnits="userSpaceOnUse" class="svg-def" gradientTransform="matrix(1.000000, 0.000000, 0.000000, 1.000000, 0.000000, 0.000000)"><stop stop-color="#fff"/><stop offset="1" stop-color="#999"/></linearGradient><linearGradient x1="208.621" y1="30" x2="208.621" y2="87" id="render-1-i" gradientUnits="userSpaceOnUse" class="svg-def" gradientTransform="matrix(1.000000, 0.000000, 0.000000, 1.000000, 0.000000, 0.000000)"><stop stop-color="#fff"/><stop offset="1" stop-color="#999"/></linearGradient><linearGradient x1="211.727" y1="30" x2="211.727" y2="87" id="render-1-k" gradientUnits="userSpaceOnUse" class="svg-def" gradientTransform="matrix(1.000000, 0.000000, 0.000000, 1.000000, 0.000000, 0.000000)"><stop stop-color="#fff"/><stop offset="1" stop-color="#999"/></linearGradient><linearGradient x1="189.642" y1="30" x2="189.642" y2="87" id="render-1-b" gradientUnits="userSpaceOnUse" class="svg-def" gradientTransform="matrix(1.000000, 0.000000, 0.000000, 1.000000, 0.000000, 0.000000)"><stop stop-color="#fff"/><stop offset="1" stop-color="#999"/></linearGradient><linearGradient x1="203.548" y1="30" x2="203.548" y2="87" id="render-1-g" gradientUnits="userSpaceOnUse" class="svg-def" gradientTransform="matrix(1.000000, 0.000000, 0.000000, 1.000000, 0.000000, 0.000000)"><stop stop-color="#fff"/><stop offset="1" stop-color="#999"/></linearGradient><linearGradient x1="206.404" y1="30" x2="206.404" y2="87" id="render-1-h" gradientUnits="userSpaceOnUse" class="svg-def" gradientTransform="matrix(1.000000, 0.000000, 0.000000, 1.000000, 0.000000, 0.000000)"><stop stop-color="#fff"/><stop offset="1" stop-color="#999"/></linearGradient><linearGradient x1="189.208" y1="30" x2="189.208" y2="87" id="render-1-c" gradientUnits="userSpaceOnUse" class="svg-def" gradientTransform="matrix(1.000000, 0.000000, 0.000000, 1.000000, 0.000000, 0.000000)"><stop stop-color="#fff"/><stop offset="1" stop-color="#999"/></linearGradient></defs><g id="shape-c17a8d61-28a7-809a-8007-e26e2a8c2269" style="display: none;"><g class="fills" id="fills-c17a8d61-28a7-809a-8007-e26e2a8c2269"><rect width="344" height="100" x="0" transform="matrix(1.000000, 0.000000, 0.000000, 1.000000, 0.000000, 0.000000)" style="fill: none;" ry="0" fill="none" rx="0" y="0"/></g></g><g id="shape-c17a8d61-28a7-809a-8007-e26e2a8d6b89"><g class="fills" id="fills-c17a8d61-28a7-809a-8007-e26e2a8d6b89"><path d="M70,48.09942626953125L70,69.61822509765625L57.36151123046875,82.25677490234375L57.36151123046875,61.123779296875L46.614501953125,71.87078857421875L46.614501953125,54.58819580078125L46.474090576171875,54.72711181640625L36.24371337890625,64.9580078125L36.24371337890625,82.25677490234375L23,71.4498291015625L23,46.74432373046875L40.8258056640625,28.91790771484375L40.8258056640625,42.4451904296875L46.115997314453125,37.156494140625L46.115997314453125,17L60.50579833984375,31.38970947265625L60.50579833984375,57.59649658203125L70,48.09942626953125Z" style="fill: rgb(239, 56, 45);"/></g></g><g id="shape-c17a8d61-28a7-809a-8007-e26e2a8dc50c"><g class="fills" id="fills-c17a8d61-28a7-809a-8007-e26e2a8dc50c"><path d="M70,48.09942626953125L70,69.61822509765625L57.36151123046875,82.25677490234375L57.36151123046875,61.123779296875L46.614501953125,71.87078857421875L46.614501953125,54.58819580078125L46.474090576171875,54.72711181640625L36.24371337890625,64.9580078125L36.24371337890625,82.25677490234375L23,71.4498291015625L23,46.74432373046875L40.8258056640625,28.91790771484375L40.8258056640625,42.4451904296875L46.115997314453125,37.156494140625L46.115997314453125,17L60.50579833984375,31.38970947265625L60.50579833984375,57.59649658203125L70,48.09942626953125Z" style="fill: rgb(239, 56, 45);"/></g></g><g id="shape-c17a8d61-28a7-809a-8007-e26e2a8e0fe0"><g class="fills" id="fills-c17a8d61-28a7-809a-8007-e26e2a8e0fe0"><path d="M70,48.09942626953125L70,69.61822509765625L57.36151123046875,82.25677490234375L57.36151123046875,61.123779296875L46.614501953125,71.87078857421875L46.614501953125,54.58819580078125L46.474090576171875,54.72711181640625L36.24371337890625,64.9580078125L36.24371337890625,82.25677490234375L23,71.4498291015625L23,46.74432373046875L40.8258056640625,28.91790771484375L40.8258056640625,42.4451904296875L46.115997314453125,37.156494140625L46.115997314453125,17L60.50579833984375,31.38970947265625L60.50579833984375,57.59649658203125L70,48.09942626953125Z" style="fill: rgb(239, 56, 45);"/></g></g><g id="shape-c17a8d61-28a7-809a-8007-e26e2a8e0fe1"><g class="fills" id="fills-c17a8d61-28a7-809a-8007-e26e2a8e0fe1"><path d="M60.5059814453125,31.388702392578125L60.5059814453125,57.59552001953125L57.36181640625,61.1226806640625L46.61468505859375,71.86968994140625L46.61468505859375,54.58709716796875L60.5059814453125,31.388702392578125Z" style="fill: rgb(243, 110, 33);"/></g></g><g id="shape-c17a8d61-28a7-809a-8007-e26e2a8e44b6"><g class="fills" id="fills-c17a8d61-28a7-809a-8007-e26e2a8e44b6"><path d="M36.24371337890625,64.9581298828125L36.24371337890625,82.25677490234375L23,71.4498291015625L23,54.03997802734375L36.24371337890625,64.9581298828125Z" style="fill: rgb(246, 189, 40);"/></g></g><g id="shape-c17a8d61-28a7-809a-8007-e26e2a8e44b7"><g class="fills" id="fills-c17a8d61-28a7-809a-8007-e26e2a8e44b7"><path d="M46.614501953125,54.58880615234375L36.24371337890625,64.9586181640625L23,54.04058837890625L23,46.744873046875L30.806884765625,38.9375L46.614501953125,54.58880615234375Z" style="fill: rgb(233, 29, 37);"/></g></g><g id="shape-c17a8d61-28a7-809a-8007-e26e2a8ead63"><g class="fills" id="fills-c17a8d61-28a7-809a-8007-e26e2a8ead63"><path d="M60.5059814453125,31.38970947265625L46.61468505859375,55.782470703125L46.502105712890625,55.9813232421875L46.474395751953125,54.72711181640625L46.1162109375,37.156494140625L46.1162109375,17L60.5059814453125,31.38970947265625Z" style="fill: rgb(246, 189, 40);"/></g></g><g id="shape-c17a8d61-28a7-809a-8007-e26e2a8f17c5"><defs><linearGradient x1="188.013" y1="30" x2="188.013" y2="87" id="render-10-a" gradientUnits="userSpaceOnUse" gradientTransform="matrix(1.000000, 0.000000, 0.000000, 1.000000, 0.000000, 0.000000)"><stop stop-color="#fff"/><stop offset="1" stop-color="#999"/></linearGradient></defs><g class="fills" id="fills-c17a8d61-28a7-809a-8007-e26e2a8f17c5"><path d="M310.4840087890625,48.74017333984375L310.77801513671875,52.940185546875C311.57598876953125,50.084228515625,313.3819580078125,48.74017333984375,316.322021484375,48.74017333984375L320.77398681640625,48.74017333984375L320.77398681640625,51.84820556640625L316.322021484375,51.84820556640625C312.9200439453125,51.84820556640625,311.323974609375,53.90618896484375,311.323974609375,57.72821044921875L311.323974609375,67.8922119140625L318.5899658203125,67.8922119140625L318.5899658203125,71.00018310546875L302,71.00018310546875L302,67.8922119140625L307.7960205078125,67.8922119140625L307.7960205078125,51.84820556640625L302,51.84820556640625L302,48.74017333984375L310.4840087890625,48.74017333984375Z" fill="url(#render-10-a)" style="fill: url(&quot;#render-10-a&quot;);"/></g></g><g id="shape-c17a8d61-28a7-809a-8007-e26e2a8f45aa"><defs><linearGradient x1="189.642" y1="30" x2="189.642" y2="87" id="render-11-b" gradientUnits="userSpaceOnUse" gradientTransform="matrix(1.000000, 0.000000, 0.000000, 1.000000, 0.000000, 0.000000)"><stop stop-color="#fff"/><stop offset="1" stop-color="#999"/></linearGradient></defs><g class="fills" id="fills-c17a8d61-28a7-809a-8007-e26e2a8f45aa"><path d="M280,59.87030029296875C280,52.8143310546875,284.031982421875,48.236328125,290.20599365234375,48.236328125C295.1199951171875,48.236328125,299.488037109375,51.47027587890625,299.865966796875,59.36627197265625L299.907958984375,60.9622802734375L283.780029296875,60.9622802734375C284.073974609375,65.498291015625,286.384033203125,68.144287109375,290.20599365234375,68.144287109375C292.5999755859375,68.144287109375,294.74200439453125,66.75830078125,295.75,64.40631103515625L299.530029296875,64.7003173828125C298.22802734375,68.9002685546875,294.489990234375,71.5042724609375,290.20599365234375,71.5042724609375C284.031982421875,71.5042724609375,280,66.92626953125,280,59.87030029296875ZM283.822021484375,57.85430908203125L296.04400634765625,57.85430908203125C295.41400146484375,53.19232177734375,292.93603515625,51.5963134765625,290.20599365234375,51.5963134765625C286.677978515625,51.5963134765625,284.4100341796875,53.90631103515625,283.822021484375,57.85430908203125Z" fill="url(#render-11-b)" style="fill: url(&quot;#render-11-b&quot;);"/></g></g><g id="shape-c17a8d61-28a7-809a-8007-e26e2a8ff4e6"><defs><linearGradient x1="189.208" y1="30" x2="189.208" y2="87" id="render-12-c" gradientUnits="userSpaceOnUse" gradientTransform="matrix(1.000000, 0.000000, 0.000000, 1.000000, 0.000000, 0.000000)"><stop stop-color="#fff"/><stop offset="1" stop-color="#999"/></linearGradient></defs><g class="fills" id="fills-c17a8d61-28a7-809a-8007-e26e2a8ff4e6"><path d="M264,42.86041259765625L267.52801513671875,42.86041259765625L267.52801513671875,48.74029541015625L276.4320068359375,48.74029541015625L276.4320068359375,51.848388671875L267.52801513671875,51.848388671875L267.52801513671875,64.868408203125C267.52801513671875,66.7584228515625,268.5360107421875,67.892333984375,270.426025390625,67.892333984375L276.3900146484375,67.892333984375L276.3900146484375,71.0003662109375L270.426025390625,71.0003662109375C265.8900146484375,71.0003662109375,264,68.56439208984375,264,64.868408203125L264,51.848388671875L264,48.74029541015625L264,42.86041259765625Z" fill="url(#render-12-c)" style="fill: url(&quot;#render-12-c&quot;);"/></g></g><g id="shape-c17a8d61-28a7-809a-8007-e26e2a9026c6"><defs><linearGradient x1="195.003" y1="30" x2="195.003" y2="87" id="render-13-d" gradientUnits="userSpaceOnUse" gradientTransform="matrix(1.000000, 0.000000, 0.000000, 1.000000, 0.000000, 0.000000)"><stop stop-color="#fff"/><stop offset="1" stop-color="#999"/></linearGradient></defs><g class="fills" id="fills-c17a8d61-28a7-809a-8007-e26e2a9026c6"><path d="M249.4840087890625,48.74017333984375L249.77801513671875,52.940185546875C250.57598876953125,50.084228515625,252.38201904296875,48.74017333984375,255.322021484375,48.74017333984375L259.77398681640625,48.74017333984375L259.77398681640625,51.84820556640625L255.322021484375,51.84820556640625C251.91998291015625,51.84820556640625,250.323974609375,53.90618896484375,250.323974609375,57.72821044921875L250.323974609375,67.8922119140625L257.5899658203125,67.8922119140625L257.5899658203125,71.00018310546875L241,71.00018310546875L241,67.8922119140625L246.7960205078125,67.8922119140625L246.7960205078125,51.84820556640625L241,51.84820556640625L241,48.74017333984375L249.4840087890625,48.74017333984375Z" fill="url(#render-13-d)" style="fill: url(&quot;#render-13-d&quot;);"/></g></g><g id="shape-c17a8d61-28a7-809a-8007-e26e2a909596"><defs><linearGradient x1="195.935" y1="30" x2="195.935" y2="87" id="render-14-e" gradientUnits="userSpaceOnUse" gradientTransform="matrix(1.000000, 0.000000, 0.000000, 1.000000, 0.000000, 0.000000)"><stop stop-color="#fff"/><stop offset="1" stop-color="#999"/></linearGradient></defs><g class="fills" id="fills-c17a8d61-28a7-809a-8007-e26e2a909596"><path d="M217.37799072265625,55.29229736328125C218.218017578125,51.09228515625,221.87200927734375,48.236328125,226.49200439453125,48.236328125C231.86798095703125,48.236328125,235.43798828125,51.34429931640625,235.43798828125,57.560302734375L235.43798828125,66.50628662109375C235.43798828125,67.4302978515625,235.8580322265625,67.892333984375,236.823974609375,67.892333984375L237.70599365234375,67.892333984375L237.70599365234375,71.00030517578125L236.614013671875,71.00030517578125C233.926025390625,71.00030517578125,232.33001708984375,69.57232666015625,231.9520263671875,67.5562744140625C231.07000732421875,69.61431884765625,228.54998779296875,71.5042724609375,225.02197265625,71.5042724609375C220.61199951171875,71.5042724609375,217,69.15228271484375,217,65.16229248046875C217,60.58428955078125,220.4859619140625,59.4083251953125,225.4000244140625,58.48431396484375L231.9100341796875,57.18231201171875C231.86798095703125,53.40228271484375,229.76800537109375,51.5963134765625,226.49200439453125,51.5963134765625C223.719970703125,51.5963134765625,221.7039794921875,53.27630615234375,221.15802001953125,55.5863037109375L217.37799072265625,55.29229736328125ZM220.69598388671875,65.16229248046875C220.69598388671875,66.92626953125,222.2080078125,68.39630126953125,225.4840087890625,68.39630126953125C229.13800048828125,68.35430908203125,231.9940185546875,65.83428955078125,231.9940185546875,61.42431640625L231.9940185546875,60.332275390625L226.7440185546875,61.25628662109375C223.426025390625,61.84429931640625,220.69598388671875,62.0543212890625,220.69598388671875,65.16229248046875Z" fill="url(#render-14-e)" style="fill: url(&quot;#render-14-e&quot;);"/></g></g><g id="shape-c17a8d61-28a7-809a-8007-e26e2a90cfb7"><defs><linearGradient x1="197.961" y1="30" x2="197.961" y2="87" id="render-15-f" gradientUnits="userSpaceOnUse" gradientTransform="matrix(1.000000, 0.000000, 0.000000, 1.000000, 0.000000, 0.000000)"><stop stop-color="#fff"/><stop offset="1" stop-color="#999"/></linearGradient></defs><g class="fills" id="fills-c17a8d61-28a7-809a-8007-e26e2a90cfb7"><path d="M201.822021484375,42.86041259765625L205.3499755859375,42.86041259765625L205.3499755859375,48.74029541015625L214.2540283203125,48.74029541015625L214.2540283203125,51.848388671875L205.3499755859375,51.848388671875L205.3499755859375,64.868408203125C205.3499755859375,66.7584228515625,206.3580322265625,67.892333984375,208.24798583984375,67.892333984375L214.2120361328125,67.892333984375L214.2120361328125,71.0003662109375L208.24798583984375,71.0003662109375C203.7120361328125,71.0003662109375,201.822021484375,68.56439208984375,201.822021484375,64.868408203125L201.822021484375,51.848388671875L201.822021484375,48.74029541015625L201.822021484375,42.86041259765625Z" fill="url(#render-15-f)" style="fill: url(&quot;#render-15-f&quot;);"/></g></g><g id="shape-c17a8d61-28a7-809a-8007-e26e2a910b81"><defs><linearGradient x1="203.548" y1="30" x2="203.548" y2="87" id="render-16-g" gradientUnits="userSpaceOnUse" gradientTransform="matrix(1.000000, 0.000000, 0.000000, 1.000000, 0.000000, 0.000000)"><stop stop-color="#fff"/><stop offset="1" stop-color="#999"/></linearGradient></defs><g class="fills" id="fills-c17a8d61-28a7-809a-8007-e26e2a910b81"><path d="M194.615966796875,55.6282958984375C194.11199951171875,53.1082763671875,191.718017578125,51.5963134765625,188.86199951171875,51.5963134765625C186.552001953125,51.5963134765625,184.36798095703125,52.77227783203125,184.4100341796875,55.082275390625C184.4100341796875,57.476318359375,187.2659912109375,58.02227783203125,189.7020263671875,58.69427490234375C193.9019775390625,59.74432373046875,198.31201171875,61.08831787109375,198.31201171875,65.330322265625C198.31201171875,69.69830322265625,193.9859619140625,71.5042724609375,189.61798095703125,71.5042724609375C184.4940185546875,71.5042724609375,180.29400634765625,68.6063232421875,180,63.986328125L183.65399169921875,63.73431396484375C184.073974609375,66.42230224609375,186.510009765625,68.144287109375,189.61798095703125,68.144287109375C192.011962890625,68.144287109375,194.573974609375,67.5142822265625,194.573974609375,65.12030029296875C194.573974609375,62.684326171875,191.42401123046875,62.3062744140625,189.072021484375,61.76031494140625C184.99798583984375,60.7943115234375,180.7139892578125,59.32427978515625,180.7139892578125,55.25030517578125C180.6719970703125,50.75628662109375,184.7039794921875,48.236328125,189.239990234375,48.236328125C193.8599853515625,48.236328125,197.42999267578125,51.05029296875,198.14398193359375,55.37628173828125L194.615966796875,55.6282958984375Z" fill="url(#render-16-g)" style="fill: url(&quot;#render-16-g&quot;);"/></g></g><g id="shape-c17a8d61-28a7-809a-8007-e26e2a917b66"><defs><linearGradient x1="206.404" y1="30" x2="206.404" y2="87" id="render-17-h" gradientUnits="userSpaceOnUse" gradientTransform="matrix(1.000000, 0.000000, 0.000000, 1.000000, 0.000000, 0.000000)"><stop stop-color="#fff"/><stop offset="1" stop-color="#999"/></linearGradient></defs><g class="fills" id="fills-c17a8d61-28a7-809a-8007-e26e2a917b66"><path d="M157,59.87030029296875C157,52.8143310546875,161.031982421875,48.236328125,167.20599365234375,48.236328125C172.1199951171875,48.236328125,176.488037109375,51.47027587890625,176.865966796875,59.36627197265625L176.90802001953125,60.9622802734375L160.780029296875,60.9622802734375C161.073974609375,65.498291015625,163.384033203125,68.144287109375,167.20599365234375,68.144287109375C169.5999755859375,68.144287109375,171.74200439453125,66.75830078125,172.75,64.40631103515625L176.530029296875,64.7003173828125C175.22802734375,68.9002685546875,171.489990234375,71.5042724609375,167.20599365234375,71.5042724609375C161.031982421875,71.5042724609375,157,66.92626953125,157,59.87030029296875ZM160.822021484375,57.85430908203125L173.04400634765625,57.85430908203125C172.41400146484375,53.19232177734375,169.93603515625,51.5963134765625,167.20599365234375,51.5963134765625C163.677978515625,51.5963134765625,161.4100341796875,53.90631103515625,160.822021484375,57.85430908203125Z" fill="url(#render-17-h)" style="fill: url(&quot;#render-17-h&quot;);"/></g></g><g id="shape-c17a8d61-28a7-809a-8007-e26e2a91800f"><defs><linearGradient x1="208.621" y1="30" x2="208.621" y2="87" id="render-18-i" gradientUnits="userSpaceOnUse" gradientTransform="matrix(1.000000, 0.000000, 0.000000, 1.000000, 0.000000, 0.000000)"><stop stop-color="#fff"/><stop offset="1" stop-color="#999"/></linearGradient></defs><g class="fills" id="fills-c17a8d61-28a7-809a-8007-e26e2a91800f"><path d="M143.4840087890625,48.74017333984375L143.77801513671875,52.940185546875C144.57598876953125,50.084228515625,146.38201904296875,48.74017333984375,149.322021484375,48.74017333984375L153.77398681640625,48.74017333984375L153.77398681640625,51.84820556640625L149.322021484375,51.84820556640625C145.91998291015625,51.84820556640625,144.323974609375,53.90618896484375,144.323974609375,57.72821044921875L144.323974609375,67.8922119140625L151.5899658203125,67.8922119140625L151.5899658203125,71.00018310546875L135,71.00018310546875L135,67.8922119140625L140.7960205078125,67.8922119140625L140.7960205078125,51.84820556640625L135,51.84820556640625L135,48.74017333984375L143.4840087890625,48.74017333984375Z" fill="url(#render-18-i)" style="fill: url(&quot;#render-18-i&quot;);"/></g></g><g id="shape-c17a8d61-28a7-809a-8007-e26e2a91d8b5"><defs><linearGradient x1="211.726" y1="30" x2="211.726" y2="87" id="render-19-j" gradientUnits="userSpaceOnUse" gradientTransform="matrix(1.000000, 0.000000, 0.000000, 1.000000, 0.000000, 0.000000)"><stop stop-color="#fff"/><stop offset="1" stop-color="#999"/></linearGradient></defs><g class="fills" id="fills-c17a8d61-28a7-809a-8007-e26e2a91d8b5"><path d="M125.0169677734375,48.73968505859375L125.0169677734375,67.8917236328125L132.6190185546875,67.8917236328125L132.6190185546875,70.99969482421875L112.66900634765625,70.99969482421875L112.66900634765625,67.8917236328125L121.489013671875,67.8917236328125L121.489013671875,51.84771728515625L113.509033203125,51.84771728515625L113.509033203125,48.73968505859375L125.0169677734375,48.73968505859375ZM121.0269775390625,45.42169189453125L121.0269775390625,41.1796875L125.0169677734375,41.1796875L125.0169677734375,45.42169189453125L121.0269775390625,45.42169189453125Z" fill="url(#render-19-j)" style="fill: url(&quot;#render-19-j&quot;);"/></g></g><g id="shape-c17a8d61-28a7-809a-8007-e26e2a9234fe"><defs><linearGradient x1="211.727" y1="30" x2="211.727" y2="87" id="render-20-k" gradientUnits="userSpaceOnUse" gradientTransform="matrix(1.000000, 0.000000, 0.000000, 1.000000, 0.000000, 0.000000)"><stop stop-color="#fff"/><stop offset="1" stop-color="#999"/></linearGradient></defs><g class="fills" id="fills-c17a8d61-28a7-809a-8007-e26e2a9234fe"><path d="M87.94818115234375,41.1796875L106.260009765625,41.1796875L106.260009765625,44.70770263671875L91.5601806640625,44.70770263671875L91.5601806640625,54.70367431640625L105.5040283203125,54.70367431640625L105.5040283203125,58.147705078125L91.5601806640625,58.147705078125L91.5601806640625,70.99969482421875L87.94818115234375,70.99969482421875L87.94818115234375,41.1796875Z" fill="url(#render-20-k)" style="fill: url(&quot;#render-20-k&quot;);"/></g></g><g id="shape-c17a8d61-28a7-809a-8007-e26e2a927b8d"><defs fill="none" style="fill: rgb(0, 0, 0);"/></g></g></svg>