<svg width="344" height="100" viewBox="0 0 344 100" fill="none" xmlns="http://www.w3.org/2000/svg">
<path d="M70 48.0994L70 69.6182L57.3615 82.2568L57.3615 61.1238L46.6145 71.8708L46.6145 54.5882L46.4741 54.7271L36.2437 64.958L36.2437 82.2568L23 71.4498L23 46.7443L40.8258 28.9179L40.8258 42.4452L46.116 37.1565L46.116 17L60.5058 31.3897L60.5058 57.5965L70 48.0994Z" fill="#EF382D"/>
<path d="M70 48.0994L70 69.6182L57.3615 82.2568L57.3615 61.1238L46.6145 71.8708L46.6145 54.5882L46.4741 54.7271L36.2437 64.958L36.2437 82.2568L23 71.4498L23 46.7443L40.8258 28.9179L40.8258 42.4452L46.116 37.1565L46.116 17L60.5058 31.3897L60.5058 57.5965L70 48.0994Z" fill="#EF382D"/>
<path d="M70 48.0994L70 69.6182L57.3615 82.2568L57.3615 61.1238L46.6145 71.8708L46.6145 54.5882L46.4741 54.7271L36.2437 64.958L36.2437 82.2568L23 71.4498L23 46.7443L40.8258 28.9179L40.8258 42.4452L46.116 37.1565L46.116 17L60.5058 31.3897L60.5058 57.5965L70 48.0994Z" fill="#EF382D"/>
<path d="M60.506 31.3887L60.506 57.5955L57.3618 61.1227L46.6147 71.8697L46.6147 54.5871L60.506 31.3887Z" fill="#F36E21"/>
<path d="M36.2437 64.9581L36.2437 82.2568L23 71.4498L23 54.04L36.2437 64.9581Z" fill="#F6BD28"/>
<path d="M46.6145 54.5888L36.2437 64.9586L23 54.0406L23 46.7449L30.8069 38.9375L46.6145 54.5888Z" fill="#E91D25"/>
<path d="M60.506 31.3897L46.6147 55.7825L46.5021 55.9813L46.4744 54.7271L46.1162 37.1565L46.1162 17L60.506 31.3897Z" fill="#F6BD28"/>
<path d="M310.484 48.7402L310.778 52.9402C311.576 50.0842 313.382 48.7402 316.322 48.7402H320.774V51.8482H316.322C312.92 51.8482 311.324 53.9062 311.324 57.7282V67.8922H318.59V71.0002H302V67.8922H307.796V51.8482H302V48.7402H310.484Z" fill="url(#paint0_linear_2_43)"/>
<path d="M280 59.8703C280 52.8143 284.032 48.2363 290.206 48.2363C295.12 48.2363 299.488 51.4703 299.866 59.3663L299.908 60.9623H283.78C284.074 65.4983 286.384 68.1443 290.206 68.1443C292.6 68.1443 294.742 66.7583 295.75 64.4063L299.53 64.7003C298.228 68.9003 294.49 71.5043 290.206 71.5043C284.032 71.5043 280 66.9263 280 59.8703ZM283.822 57.8543H296.044C295.414 53.1923 292.936 51.5963 290.206 51.5963C286.678 51.5963 284.41 53.9063 283.822 57.8543Z" fill="url(#paint1_linear_2_43)"/>
<path d="M264 42.8604H267.528V48.7403H276.432V51.8484H267.528V64.8684C267.528 66.7584 268.536 67.8923 270.426 67.8923H276.39V71.0004H270.426C265.89 71.0004 264 68.5644 264 64.8684V51.8484V48.7403V42.8604Z" fill="url(#paint2_linear_2_43)"/>
<path d="M249.484 48.7402L249.778 52.9402C250.576 50.0842 252.382 48.7402 255.322 48.7402H259.774V51.8482H255.322C251.92 51.8482 250.324 53.9062 250.324 57.7282V67.8922H257.59V71.0002H241V67.8922H246.796V51.8482H241V48.7402H249.484Z" fill="url(#paint3_linear_2_43)"/>
<path d="M217.378 55.2923C218.218 51.0923 221.872 48.2363 226.492 48.2363C231.868 48.2363 235.438 51.3443 235.438 57.5603V66.5063C235.438 67.4303 235.858 67.8923 236.824 67.8923H237.706V71.0003H236.614C233.926 71.0003 232.33 69.5723 231.952 67.5563C231.07 69.6143 228.55 71.5043 225.022 71.5043C220.612 71.5043 217 69.1523 217 65.1623C217 60.5843 220.486 59.4083 225.4 58.4843L231.91 57.1823C231.868 53.4023 229.768 51.5963 226.492 51.5963C223.72 51.5963 221.704 53.2763 221.158 55.5863L217.378 55.2923ZM220.696 65.1623C220.696 66.9263 222.208 68.3963 225.484 68.3963C229.138 68.3543 231.994 65.8343 231.994 61.4243V60.3323L226.744 61.2563C223.426 61.8443 220.696 62.0543 220.696 65.1623Z" fill="url(#paint4_linear_2_43)"/>
<path d="M201.822 42.8604H205.35V48.7403H214.254V51.8484H205.35V64.8684C205.35 66.7584 206.358 67.8923 208.248 67.8923H214.212V71.0004H208.248C203.712 71.0004 201.822 68.5644 201.822 64.8684V51.8484V48.7403V42.8604Z" fill="url(#paint5_linear_2_43)"/>
<path d="M194.616 55.6283C194.112 53.1083 191.718 51.5963 188.862 51.5963C186.552 51.5963 184.368 52.7723 184.41 55.0823C184.41 57.4763 187.266 58.0223 189.702 58.6943C193.902 59.7443 198.312 61.0883 198.312 65.3303C198.312 69.6983 193.986 71.5043 189.618 71.5043C184.494 71.5043 180.294 68.6063 180 63.9863L183.654 63.7343C184.074 66.4223 186.51 68.1443 189.618 68.1443C192.012 68.1443 194.574 67.5143 194.574 65.1203C194.574 62.6843 191.424 62.3063 189.072 61.7603C184.998 60.7943 180.714 59.3243 180.714 55.2503C180.672 50.7563 184.704 48.2363 189.24 48.2363C193.86 48.2363 197.43 51.0503 198.144 55.3763L194.616 55.6283Z" fill="url(#paint6_linear_2_43)"/>
<path d="M157 59.8703C157 52.8143 161.032 48.2363 167.206 48.2363C172.12 48.2363 176.488 51.4703 176.866 59.3663L176.908 60.9623H160.78C161.074 65.4983 163.384 68.1443 167.206 68.1443C169.6 68.1443 171.742 66.7583 172.75 64.4063L176.53 64.7003C175.228 68.9003 171.49 71.5043 167.206 71.5043C161.032 71.5043 157 66.9263 157 59.8703ZM160.822 57.8543H173.044C172.414 53.1923 169.936 51.5963 167.206 51.5963C163.678 51.5963 161.41 53.9063 160.822 57.8543Z" fill="url(#paint7_linear_2_43)"/>
<path d="M143.484 48.7402L143.778 52.9402C144.576 50.0842 146.382 48.7402 149.322 48.7402H153.774V51.8482H149.322C145.92 51.8482 144.324 53.9062 144.324 57.7282V67.8922H151.59V71.0002H135V67.8922H140.796V51.8482H135V48.7402H143.484Z" fill="url(#paint8_linear_2_43)"/>
<path d="M125.017 48.7397V67.8917H132.619V70.9997H112.669V67.8917H121.489V51.8477H113.509V48.7397H125.017ZM121.027 45.4217V41.1797H125.017V45.4217H121.027Z" fill="url(#paint9_linear_2_43)"/>
<path d="M87.9482 41.1797H106.26V44.7077H91.5602V54.7037H105.504V58.1477H91.5602V70.9997H87.9482V41.1797Z" fill="url(#paint10_linear_2_43)"/>
<defs>
<linearGradient id="paint0_linear_2_43" x1="188.013" y1="30.0002" x2="188.013" y2="87.0002" gradientUnits="userSpaceOnUse">
<stop stop-color="white"/>
<stop offset="1" stop-color="#999999"/>
</linearGradient>
<linearGradient id="paint1_linear_2_43" x1="189.642" y1="30.0003" x2="189.642" y2="87.0003" gradientUnits="userSpaceOnUse">
<stop stop-color="white"/>
<stop offset="1" stop-color="#999999"/>
</linearGradient>
<linearGradient id="paint2_linear_2_43" x1="189.208" y1="30.0003" x2="189.208" y2="87.0004" gradientUnits="userSpaceOnUse">
<stop stop-color="white"/>
<stop offset="1" stop-color="#999999"/>
</linearGradient>
<linearGradient id="paint3_linear_2_43" x1="195.003" y1="30.0002" x2="195.003" y2="87.0002" gradientUnits="userSpaceOnUse">
<stop stop-color="white"/>
<stop offset="1" stop-color="#999999"/>
</linearGradient>
<linearGradient id="paint4_linear_2_43" x1="195.935" y1="30.0003" x2="195.935" y2="87.0003" gradientUnits="userSpaceOnUse">
<stop stop-color="white"/>
<stop offset="1" stop-color="#999999"/>
</linearGradient>
<linearGradient id="paint5_linear_2_43" x1="197.961" y1="30.0003" x2="197.961" y2="87.0004" gradientUnits="userSpaceOnUse">
<stop stop-color="white"/>
<stop offset="1" stop-color="#999999"/>
</linearGradient>
<linearGradient id="paint6_linear_2_43" x1="203.548" y1="30.0003" x2="203.548" y2="87.0003" gradientUnits="userSpaceOnUse">
<stop stop-color="white"/>
<stop offset="1" stop-color="#999999"/>
</linearGradient>
<linearGradient id="paint7_linear_2_43" x1="206.404" y1="30.0003" x2="206.404" y2="87.0003" gradientUnits="userSpaceOnUse">
<stop stop-color="white"/>
<stop offset="1" stop-color="#999999"/>
</linearGradient>
<linearGradient id="paint8_linear_2_43" x1="208.621" y1="30.0002" x2="208.621" y2="87.0002" gradientUnits="userSpaceOnUse">
<stop stop-color="white"/>
<stop offset="1" stop-color="#999999"/>
</linearGradient>
<linearGradient id="paint9_linear_2_43" x1="211.726" y1="29.9997" x2="211.726" y2="86.9997" gradientUnits="userSpaceOnUse">
<stop stop-color="white"/>
<stop offset="1" stop-color="#999999"/>
</linearGradient>
<linearGradient id="paint10_linear_2_43" x1="211.727" y1="29.9997" x2="211.727" y2="86.9997" gradientUnits="userSpaceOnUse">
<stop stop-color="white"/>
<stop offset="1" stop-color="#999999"/>
</linearGradient>
</defs>
</svg>
